<?xml version="1.0" encoding="utf-8"?>
<!-- Generator: Adobe Illustrator 23.0.1, SVG Export Plug-In . SVG Version: 6.00 Build 0)  -->
<svg version="1.1" id="Layer_1" xmlns="http://www.w3.org/2000/svg" xmlns:xlink="http://www.w3.org/1999/xlink" x="0px" y="0px"
	 viewBox="0 0 391.1 78.8" style="enable-background:new 0 0 391.1 78.8;" xml:space="preserve">
<style type="text/css">
	.st0{fill:#91B070;}
	.st1{fill:#253746;}
	.st2{opacity:0.7;fill:#253746;enable-background:new    ;}
	.st3{opacity:0.7;fill:#2B9FAD;enable-background:new    ;}
	.st4{opacity:0.7;fill:#91B070;enable-background:new    ;}
</style>
<g>
	<path id="fullLogo" class="st0" d="M136.7,43.1h2.9l-0.5,3.4h-7.7l2-12.1c0.1-0.8,0.2-1.7,0.3-2.6c0-2.3-0.8-3.6-2.7-3.6
		c-4.2,0-7.1,8.7-8,13.3l-0.6,5h-4.9l4-28.2h-2.7l0.5-3.4h7.5l-1.3,9.3c-0.2,2.4-0.9,4.7-1.9,6.9h0.3c2-4,4.9-7,8.9-7
		c3.8,0,5.7,2.5,5.7,6.9c0,1.1-0.1,2.3-0.3,3.4L136.7,43.1z"/>
	<path id="fullLogo-2" class="st0" d="M157.3,41.6l2.1,2.7c-2,1.9-4.7,3-7.5,2.9c-6,0-9.2-3.8-9.2-9.9c0-7.6,4.2-13.1,11.2-13.1
		c4.2,0,6.9,2.5,6.9,6.1c0,5.7-5.4,8.2-13.1,8.8c0.4,2.7,1.8,4.3,4.6,4.3C154.3,43.4,156,42.8,157.3,41.6z M147.8,35.8
		c5.3-0.5,8.4-2,8.4-5.3c0.1-1.3-0.8-2.4-2.1-2.6c-0.2,0-0.4,0-0.5,0C150.2,28,148.2,31.5,147.8,35.8z"/>
	<path id="fullLogo-3" class="st0" d="M181.7,43.1h2.7l-0.5,3.4h-7.1l0.1-1.1c0.2-1.8,0.7-3.6,1.4-5.3H178c-1.9,4.3-4.7,7-8.8,7
		c-4.1,0-6.4-2.9-6.4-8.5c0-8.1,4.4-14.5,11.7-14.5c2.2-0.1,4.3,0.6,6.1,1.9l0.8-1.3h2.7L181.7,43.1z M178.7,29.9l0.1-0.6
		c-1.2-1-2.7-1.5-4.2-1.4c-4.7,0-6.8,5.4-6.8,10.4c0,3.3,1,4.8,3.2,4.8C174.6,43,177.1,37.1,178.7,29.9z"/>
	<path id="fullLogo-4" class="st0" d="M187.8,46.5l3.9-28.2H189l0.5-3.4h7.5l-3.9,28.2h2.7l-0.5,3.4L187.8,46.5z"/>
	<path id="fullLogo-5" class="st0" d="M200.1,41c0-0.8,0.1-1.5,0.2-2.3l1.4-10.4h-2.8l0.5-3.5h2.8l0.7-5.2l4.9-1.1l-0.9,6.2h6.6
		l-0.5,3.5h-6.5l-1.5,10.4c-0.1,0.5-0.1,1.1-0.1,1.6c0,2.1,1.1,3.2,3.1,3.2c1,0,2.1-0.2,3-0.6l-0.5,3.5c-1.3,0.6-2.7,0.9-4.1,0.9
		C201.8,47.2,200.1,44.6,200.1,41z"/>
	<path id="fullLogo-6" class="st0" d="M233.7,43.1h2.9l-0.5,3.4h-7.7l2-12.1c0.1-0.8,0.2-1.7,0.3-2.6c0-2.3-0.8-3.6-2.7-3.6
		c-4.2,0-7.1,8.7-8,13.3l-0.6,5h-4.9l4-28.2h-2.7l0.5-3.4h7.5l-1.3,9.3c-0.2,2.4-0.9,4.7-1.9,6.9h0.3c2-4,4.9-7,8.9-7
		c3.8,0,5.7,2.5,5.7,6.9c0,1.1-0.1,2.3-0.3,3.4L233.7,43.1z"/>
	<path id="fullLogo-7" class="st1" d="M250.5,34c5.1,1.5,7.5,3.2,7.5,7c0,4-3.1,6.2-7.7,6.2c-3.4,0-5.6-1-7-2.6l-0.1,1.9h-3.4v-7.5
		h3.7c0.7,2.8,3.2,4.7,6.1,4.5c2.1,0,3.7-0.9,3.7-2.6c0-1.6-1.3-2.4-2.9-2.7l-3.3-0.8c-3.5-0.9-7.3-2.1-7.3-7c0-4,2.9-6.1,7.3-6.1
		c2.4-0.1,4.7,0.8,6.4,2.4l0.1-1.8h3.4v7.1h-3.7c-0.5-2.5-2.7-4.3-5.2-4.2c-2,0-3.5,0.9-3.5,2.7c0,1.5,1,2.1,3,2.7L250.5,34z"/>
	<path id="fullLogo-8" class="st1" d="M262.2,39.2V28.3h-2.8v-3.5h2.8v-5.2l4.8-1.1v6.3h6.6v3.5h-6.6v10.9c0,2.8,1.1,4.2,3.6,4.2
		c1,0,2-0.2,2.9-0.7v3.5c-1.3,0.7-2.7,1-4.1,0.9C264.1,47.2,262.2,43.8,262.2,39.2z"/>
	<path id="fullLogo-9" class="st1" d="M294.4,43.1h2.7v3.5H291l-0.4-3.3h-0.2c-1.8,2.6-4.7,4.1-7.8,4c-4.2,0-7.2-1.9-7.2-6.2
		c0-4.8,3.9-6.9,9.9-6.9h4.5v-0.2c0-3.3-1.1-5.8-4.6-5.8c-2.2,0-3.9,0.8-4.3,3.4h-4.5c0-5.7,4.4-7.3,8.8-7.3c8.4,0,9.3,5.8,9.3,9.7
		L294.4,43.1z M289.8,38v-0.7h-3.7c-2.4,0-5.6,0.1-5.6,3.3c0,2,1.3,2.9,3.4,2.9C286.8,43.5,289.8,41.6,289.8,38z"/>
	<path id="fullLogo-10" class="st1" d="M299,46.5v-3.5h2.7V28.2H299v-3.5h2.7v-2.4c0-4.6,1.9-8,7.2-8c1.3,0,2.6,0.2,3.8,0.8v3.5
		c-0.8-0.4-1.7-0.5-2.6-0.5c-2.5,0-3.6,1.4-3.6,4.2v2.4h5.3v3.5h-5.3v14.9h3.9v3.5H299z"/>
	<path id="fullLogo-11" class="st1" d="M313.7,46.5v-3.5h2.7V28.2h-2.7v-3.5h2.7v-2.4c0-4.6,1.9-8,7.2-8c1.3,0,2.6,0.2,3.8,0.8v3.5
		c-0.8-0.4-1.7-0.5-2.6-0.5c-2.5,0-3.6,1.4-3.6,4.2v2.4h5.3v3.5h-5.3v14.9h3.9v3.5H313.7z M329.2,46.5v-3.5h2.7V28.3h-2.7v-3.5h7.5
		v18.2h2.7v3.5H329.2z M330.6,17.4c0-1.7,1.5-3.1,3.2-3.1c1.7,0,3,1.4,3.1,3.1c-0.1,1.7-1.5,3.1-3.3,3
		C332,20.4,330.7,19.1,330.6,17.4z"/>
	<path id="fullLogo-12" class="st1" d="M363.8,43.1h2.7v3.5h-10.3v-3.5h2.7v-8.6c0-3.5-1.1-6.2-4.5-6.2c-4.7,0-5.7,4.6-5.7,7.7v7.1
		h2.7v3.5h-10.3v-3.5h2.7V28.3h-2.7v-3.5h6.7l0.4,3.3h0.2c1.6-2.6,4.4-4.1,7.4-4c5.2,0,7.9,3.8,7.9,10.2V43.1z"/>
	<path id="fullLogo-13" class="st1" d="M379.1,43.6c7.4,0,11,2.5,11,6.7c0,4.8-4.3,7.4-11.2,7.4c-7.2,0-11.1-2.5-11.1-7.5
		c0.1-2.2,1.3-4.1,3.3-5c-1.7-0.4-2.9-1.9-2.8-3.7c0-1.5,0.8-2.9,3.2-3.6c-1.5-1.5-2.2-3.6-2.1-5.7c0-4.8,3.1-8.1,9.3-8.1
		c1.3,0,2.6,0.1,3.8,0.5c0.1-2,1.2-3.7,4.1-3.7c0.9,0,1.9,0.1,2.8,0.3v3.9c-0.5-0.3-1.1-0.4-1.6-0.4c-1.1,0-1.7,0.6-1.7,1.3
		c0,0.5,0.2,0.9,0.5,1.3c1,1.4,1.5,3.1,1.4,4.8c0,4.8-2.9,8.2-9.4,8.2c-1.8,0-3.5-0.3-5.2-1c-0.6,0.4-0.9,1.1-0.9,1.8
		c0,1.1,0.9,2.4,4.3,2.4L379.1,43.6z M385.3,50.4c0-2.2-2.1-3.5-6.1-3.5h-1c-4,0-5.7,1.3-5.7,3.5c0,2.4,2.2,3.7,6.4,3.7
		C382.3,54.2,385.3,53,385.3,50.4L385.3,50.4z M374.1,32.3c-0.2,2.3,1.5,4.4,3.8,4.6c0.3,0,0.5,0,0.8,0c2.3,0.2,4.4-1.6,4.6-3.9
		c0-0.2,0-0.4,0-0.7c0-2.5-2.1-4.6-4.6-4.6C376.1,27.7,374.1,29.8,374.1,32.3L374.1,32.3z"/>
	<path id="fullLogo-14" class="st1" d="M124.2,70.2c-0.1,1.7-1.5,3-3.2,2.9c-0.1,0-0.1,0-0.2,0c-2.6,0-3.9-1.6-3.9-4.2
		c0-2.6,1.2-4.2,3.6-4.2c1,0,1.9,0.4,2.6,1.1l0-1h1v3H123c-0.1-1.2-1.1-2.1-2.2-2c-1.5,0-2.3,1-2.3,3.1c0,2.1,0.9,3.1,2.4,3.1
		c1,0.1,1.9-0.7,2-1.7c0,0,0,0,0-0.1L124.2,70.2z"/>
	<path id="fullLogo-15" class="st1" d="M125,69.9c0-1.9,1-3.2,3-3.2c2,0,3,1.3,3,3.2s-1,3.2-3,3.2S125,71.8,125,69.9z M129.6,69.9
		c0-1.3-0.5-2.1-1.6-2.1c-1.1,0-1.6,0.8-1.6,2.1c0,1.3,0.5,2.1,1.6,2.1C129.1,72,129.6,71.2,129.6,69.9z"/>
	<path id="fullLogo-16" class="st1" d="M137.9,72h0.8v1h-2.8v-1h0.8v-2.4c0-1-0.3-1.7-1.2-1.7c-1.3,0-1.6,1.3-1.6,2.1V72h0.8v1h-2.8
		v-1h0.8v-4.1h-0.8v-1h1.8l0.1,0.9h0c0.4-0.7,1.2-1.1,2-1.1c1.4,0,2.2,1,2.2,2.8L137.9,72z"/>
	<path id="fullLogo-17" class="st1" d="M145.5,72h0.8v1h-2.8v-1h0.8v-2.4c0-1-0.3-1.7-1.2-1.7c-1.3,0-1.6,1.3-1.6,2.1V72h0.8v1h-2.8
		v-1h0.8v-4.1h-0.8v-1h1.8l0.1,0.9h0c0.4-0.7,1.2-1.1,2-1.1c1.4,0,2.2,1,2.2,2.8L145.5,72z"/>
	<path id="fullLogo-18" class="st1" d="M148.2,70.1c0,1.2,0.6,2,1.9,2c0.6,0,1.3-0.2,1.8-0.6l0.6,0.8c-0.7,0.6-1.5,0.9-2.4,0.8
		c-1.6,0.2-3-1-3.2-2.6c0-0.2,0-0.4,0-0.6c0-1.8,0.9-3.2,3-3.2c1.9,0,2.7,1.3,2.7,3c0,0.1,0,0.2,0,0.3H148.2z M148.3,69.2h3.1
		c-0.1-1-0.6-1.5-1.5-1.5c-0.8-0.1-1.6,0.5-1.6,1.4C148.3,69.1,148.3,69.1,148.3,69.2z"/>
	<path id="fullLogo-19" class="st1" d="M154.7,69.9c0,1.3,0.5,2.2,1.8,2.2c0.6,0,1.2-0.2,1.7-0.6l0.6,0.8c-0.6,0.6-1.5,0.9-2.3,0.8
		c-1.6,0.1-3-1-3.2-2.6c0-0.2,0-0.4,0-0.6c0-1.8,0.9-3.1,2.7-3.1c0.7,0,1.3,0.3,1.8,0.8l0-0.6h0.9v2.3h-1.2c0-0.7-0.5-1.4-1.2-1.4
		c0,0,0,0-0.1,0C155.2,67.8,154.7,68.6,154.7,69.9z"/>
	<path id="fullLogo-20" class="st1" d="M160.6,70.9v-3h-0.8v-1h0.8v-1.4l1.3-0.3v1.7h1.8v1h-1.8v3c0,0.8,0.3,1.2,1,1.2
		c0.3,0,0.6-0.1,0.8-0.2v1c-0.4,0.2-0.7,0.3-1.1,0.3C161.2,73.1,160.6,72.2,160.6,70.9z"/>
	<path id="fullLogo-21" class="st1" d="M164.4,72.9v-1h0.8v-4.1h-0.8v-1h2.1v5h0.8v1L164.4,72.9z M164.8,64.9c0-0.5,0.4-0.9,0.9-0.8
		c0.5,0,0.8,0.4,0.8,0.8c0,0.5-0.4,0.9-0.9,0.8C165.2,65.7,164.8,65.4,164.8,64.9z"/>
	<path id="fullLogo-22" class="st1" d="M174.1,72h0.8v1H172v-1h0.8v-2.4c0-1-0.3-1.7-1.2-1.7c-1.3,0-1.6,1.3-1.6,2.1V72h0.8v1h-2.8
		v-1h0.8v-4.1h-0.8v-1h1.8l0.1,0.9h0c0.4-0.7,1.2-1.1,2-1.1c1.4,0,2.2,1,2.2,2.8L174.1,72z"/>
	<path id="fullLogo-23" class="st1" d="M178.6,72.1c2,0,3,0.7,3,1.9c0,1.3-1.2,2-3.1,2c-2,0-3.1-0.7-3.1-2.1c0-0.6,0.4-1.1,0.9-1.4
		c-0.5-0.1-0.8-0.5-0.8-1c0-0.4,0.2-0.8,0.9-1c-0.4-0.4-0.6-1-0.6-1.6c0-1.3,0.9-2.2,2.6-2.2c0.4,0,0.7,0,1.1,0.1c0-0.6,0.4-1,1-1
		c0,0,0.1,0,0.1,0c0.3,0,0.5,0,0.8,0.1V67c-0.1-0.1-0.3-0.1-0.5-0.1c-0.3,0-0.5,0.2-0.5,0.4c0,0.1,0.1,0.3,0.1,0.3
		c0.3,0.4,0.4,0.9,0.4,1.3c0,1.3-0.8,2.3-2.6,2.3c-0.5,0-1-0.1-1.4-0.3c-0.2,0.1-0.3,0.3-0.3,0.5c0,0.3,0.3,0.7,1.2,0.7L178.6,72.1z
		 M180.3,74c0-0.6-0.6-1-1.7-1h-0.3c-1.1,0-1.6,0.3-1.6,1c0,0.6,0.6,1,1.8,1C179.5,75,180.3,74.7,180.3,74L180.3,74z M177.2,69
		c0,0.7,0.6,1.3,1.3,1.3c0.7,0,1.3-0.6,1.3-1.3c0,0,0,0,0,0c0-0.7-0.6-1.3-1.3-1.3C177.8,67.7,177.2,68.3,177.2,69z"/>
	<path id="fullLogo-24" class="st1" d="M186.5,70.1c0,1.2,0.6,2,1.9,2c0.6,0,1.3-0.2,1.8-0.6l0.6,0.8c-0.7,0.6-1.5,0.9-2.4,0.8
		c-1.6,0.2-3-1-3.2-2.6c0-0.2,0-0.4,0-0.6c0-1.8,0.9-3.2,3-3.2c1.9,0,2.7,1.3,2.7,3c0,0.1,0,0.2,0,0.3H186.5z M186.5,69.2h3.1
		c-0.1-1-0.6-1.5-1.5-1.5c-0.8-0.1-1.6,0.5-1.6,1.3C186.5,69.1,186.5,69.1,186.5,69.2z"/>
	<path id="fullLogo-25" class="st1" d="M201.7,72h0.8v1h-2.8v-1h0.8v-2.4c0-1-0.3-1.7-1.2-1.7c-1.2,0-1.5,1.3-1.5,2.1V72h0.8v1h-2.8
		v-1h0.8v-2.4c0-1-0.3-1.7-1.2-1.7c-1.2,0-1.5,1.3-1.5,2.1V72h0.8v1h-2.8v-1h0.8v-4.1h-0.8v-1h1.8l0.1,0.9h0
		c0.4-0.7,1.1-1.1,1.9-1.1c0.9-0.1,1.7,0.5,1.9,1.3c0.4-0.8,1.2-1.4,2.1-1.3c1.4,0,2.2,1,2.2,2.8L201.7,72z"/>
	<path id="fullLogo-26" class="st1" d="M209.3,69.8c0.2,1.6-1,3.1-2.7,3.3c-0.2,0-0.3,0-0.5,0c-0.4,0-0.9-0.1-1.3-0.2v2h0.8v1h-2.8
		v-1h0.8v-7h-0.8v-1h1.8l0.1,0.9h0.1c0.4-0.7,1.1-1.2,2-1.1C208.4,66.7,209.3,68,209.3,69.8z M207.9,69.8c0-1.3-0.5-2-1.4-2
		c-1,0-1.6,0.8-1.6,2.1v1.9c0.4,0.2,0.8,0.3,1.3,0.3C207.5,72,207.9,71,207.9,69.8z"/>
	<path id="fullLogo-27" class="st1" d="M210,72.9v-1h0.8v-6.8H210v-0.9h2.1V72h0.8v1L210,72.9z"/>
	<path id="fullLogo-28" class="st1" d="M213.5,69.9c0-1.9,1-3.2,3-3.2s3,1.3,3,3.2s-1,3.2-3,3.2S213.5,71.8,213.5,69.9z M218.1,69.9
		c0-1.3-0.5-2.1-1.6-2.1c-1.1,0-1.6,0.8-1.6,2.1c0,1.3,0.5,2.1,1.6,2.1C217.6,72,218.1,71.2,218.1,69.9z"/>
	<path id="fullLogo-29" class="st1" d="M220.9,75.7v-1c0.3,0.2,0.7,0.3,1,0.3c0.8,0,1.1-0.4,1.4-1.3l0.4-1.1h-1.3l-1.9-4.7h-0.8v-1
		h3.1v1h-0.9l1.3,3.6h0.7l1.1-3.6h-0.9v-1h2.9v1h-0.8l-1.9,6c-0.4,1.3-1,2.1-2.4,2.1C221.7,76,221.3,75.9,220.9,75.7z"/>
	<path id="fullLogo-30" class="st1" d="M228.9,70.1c0,1.2,0.6,2,1.9,2c0.6,0,1.3-0.2,1.8-0.6l0.6,0.8c-0.7,0.6-1.5,0.9-2.4,0.8
		c-1.6,0.2-3-1-3.2-2.6c0-0.2,0-0.4,0-0.6c0-1.8,0.9-3.2,3-3.2c1.9,0,2.7,1.3,2.7,3c0,0.1,0,0.2,0,0.3H228.9z M229,69.2h3.1
		c-0.1-1-0.6-1.5-1.5-1.5c-0.8-0.1-1.6,0.5-1.6,1.3C229,69.1,229,69.1,229,69.2z"/>
	<path id="fullLogo-31" class="st1" d="M238.3,66.8V68c-0.2,0-0.3,0-0.5,0c-1.3,0-1.8,0.6-1.8,2.1V72h1.1v1H234v-1h0.8v-4.1H234v-1
		h1.8l0.1,1h0.1c0.3-0.8,1-1.2,1.8-1.2C237.9,66.7,238.1,66.8,238.3,66.8z"/>
	<path id="fullLogo-32" class="st1" d="M241.8,69.4c1.4,0.4,2.1,0.9,2.1,1.9c0,1.1-0.8,1.7-2.1,1.7c-0.7,0.1-1.4-0.2-1.9-0.7l0,0.5
		h-0.9v-2.1h1c0.2,0.8,0.9,1.3,1.7,1.2c0.6,0,1-0.2,1-0.7c0-0.5-0.4-0.7-0.8-0.8l-0.9-0.2c-1-0.2-2-0.6-2-1.9c0-1.1,0.8-1.7,2-1.7
		c0.7,0,1.3,0.2,1.8,0.7l0-0.5h0.9v1.9h-1c-0.1-0.7-0.7-1.2-1.4-1.1c-0.6,0-1,0.2-1,0.7c0,0.4,0.3,0.6,0.8,0.7L241.8,69.4z"/>
	<path id="fullLogo-33" class="st1" d="M249.7,72.9l-1.6-5h-0.8v-1h3.1v1h-0.9l1.2,4h0.5l1.2-3.3l-0.2-0.7h-0.6v-1h2.9v1h-0.8l1.1,4
		h0.5l1.2-4h-1v-1h2.9v1h-0.8l-1.6,5h-2.3l-0.9-2.7l-1,2.7H249.7z"/>
	<path id="fullLogo-34" class="st1" d="M258.8,72.9v-1h0.8v-4.1h-0.8v-1h2.1v5h0.8v1L258.8,72.9z M259.2,64.9c0-0.5,0.4-0.9,0.9-0.8
		c0.5,0,0.8,0.4,0.8,0.8c0,0.5-0.4,0.9-0.9,0.8C259.6,65.7,259.2,65.4,259.2,64.9z"/>
	<path id="fullLogo-35" class="st1" d="M262.7,70.9v-3h-0.8v-1h0.8v-1.4l1.3-0.3v1.7h1.8v1H264v3c0,0.8,0.3,1.2,1,1.2
		c0.3,0,0.6-0.1,0.8-0.2v1c-0.4,0.2-0.7,0.3-1.1,0.3C263.2,73.1,262.7,72.2,262.7,70.9z"/>
	<path id="fullLogo-36" class="st1" d="M272.6,72h0.8v1h-2.8v-1h0.8v-2.4c0-0.9-0.3-1.7-1.2-1.7c-1.3,0-1.6,1.3-1.6,2.1V72h0.8v1
		h-2.8v-1h0.8v-6.8h-0.8v-0.9h2.1v2.2c0,0.5-0.1,1-0.2,1.4h0c0.5-0.7,1.3-1.1,2.1-1.1c1.4,0,2.2,1,2.2,2.8L272.6,72z"/>
	<path id="fullLogo-37" class="st1" d="M283.2,72h0.8v1h-2.8v-1h0.8v-2.4c0-0.9-0.3-1.7-1.2-1.7c-1.3,0-1.6,1.3-1.6,2.1V72h0.8v1
		H277v-1h0.8v-6.8H277v-0.9h2.1v2.2c0,0.5-0.1,1-0.2,1.4h0c0.5-0.7,1.3-1.1,2.1-1.1c1.4,0,2.2,1,2.2,2.8L283.2,72z"/>
	<path id="fullLogo-38" class="st1" d="M285.9,70.1c0,1.2,0.6,2,1.9,2c0.6,0,1.3-0.2,1.8-0.6l0.6,0.8c-0.7,0.6-1.5,0.9-2.4,0.8
		c-1.6,0.2-3-1-3.2-2.6c0-0.2,0-0.4,0-0.6c0-1.8,0.9-3.2,3-3.2c1.9,0,2.7,1.3,2.7,3c0,0.1,0,0.2,0,0.3H285.9z M285.9,69.2h3.1
		c-0.1-1-0.6-1.5-1.5-1.5c-0.8-0.1-1.6,0.5-1.6,1.3C285.9,69.1,285.9,69.1,285.9,69.2L285.9,69.2z"/>
	<path id="fullLogo-39" class="st1" d="M296.3,72h0.8v1h-1.7l-0.1-0.9h0c-0.5,0.7-1.3,1.1-2.2,1.1c-1.2,0-2-0.5-2-1.7
		c0-1.3,1.1-1.9,2.7-1.9h1.2v0c0-0.9-0.3-1.6-1.3-1.6c-0.6-0.1-1.1,0.3-1.2,0.8c0,0,0,0.1,0,0.1h-1.3c0-1.6,1.2-2,2.4-2
		c2.3,0,2.6,1.6,2.6,2.7V72z M295,70.6v-0.2h-1c-0.6,0-1.6,0-1.6,0.9c0,0.5,0.4,0.8,0.9,0.8C294.2,72.1,294.9,71.5,295,70.6
		C295,70.6,295,70.6,295,70.6z"/>
	<path id="fullLogo-40" class="st1" d="M297.5,72.9v-1h0.8v-6.8h-0.8v-0.9h2.1V72h0.8v1L297.5,72.9z"/>
	<path id="fullLogo-41" class="st1" d="M301.5,70.9v-3h-0.8v-1h0.8v-1.4l1.3-0.3v1.7h1.8v1h-1.8v3c0,0.8,0.3,1.2,1,1.2
		c0.3,0,0.6-0.1,0.8-0.2v1c-0.4,0.2-0.7,0.3-1.1,0.3C302,73.1,301.5,72.2,301.5,70.9z"/>
	<path id="fullLogo-42" class="st1" d="M311.4,72h0.8v1h-2.8v-1h0.8v-2.4c0-0.9-0.3-1.7-1.2-1.7c-1.3,0-1.6,1.3-1.6,2.1V72h0.8v1
		h-2.8v-1h0.8v-6.8h-0.8v-0.9h2.1v2.2c0,0.5-0.1,1-0.2,1.4h0c0.5-0.7,1.3-1.1,2.1-1.1c1.4,0,2.2,1,2.2,2.8L311.4,72z"/>
	<path id="fullLogo-43" class="st1" d="M322.3,69.8c0.2,1.6-1,3.1-2.7,3.3c-0.2,0-0.3,0-0.5,0c-0.4,0-0.9-0.1-1.3-0.2v2h0.8v1h-2.8
		v-1h0.8v-7h-0.8v-1h1.8l0.1,0.9h0.1c0.4-0.7,1.1-1.2,2-1.1C321.3,66.7,322.3,68,322.3,69.8z M320.9,69.8c0-1.3-0.5-2-1.4-2
		c-1,0-1.6,0.8-1.6,2.1v1.9c0.4,0.2,0.8,0.3,1.3,0.3C320.5,72,320.9,71,320.9,69.8z"/>
	<path id="fullLogo-44" class="st1" d="M327.3,66.8V68c-0.2,0-0.3,0-0.5,0c-1.3,0-1.8,0.6-1.8,2.1V72h1.1v1H323v-1h0.8v-4.1H323v-1
		h1.8l0.1,1h0.1c0.3-0.8,1-1.2,1.8-1.2C326.9,66.7,327.1,66.8,327.3,66.8z"/>
	<path id="fullLogo-45" class="st1" d="M327.6,69.9c0-1.9,1-3.2,3-3.2s3,1.3,3,3.2s-1,3.2-3,3.2S327.6,71.8,327.6,69.9z M332.2,69.9
		c0-1.3-0.5-2.1-1.6-2.1c-1.1,0-1.6,0.8-1.6,2.1c0,1.3,0.5,2.1,1.6,2.1C331.8,72,332.2,71.2,332.2,69.9L332.2,69.9z"/>
	<path id="fullLogo-46" class="st1" d="M334.3,72.9v-1h0.8v-4.1h-0.8v-1h0.8v-0.7c0-1.3,0.5-2.2,2-2.2c0.4,0,0.7,0.1,1.1,0.2v1
		c-0.2-0.1-0.5-0.1-0.7-0.2c-0.7,0-1,0.4-1,1.2v0.7h1.5v1h-1.5V72h1.1v1L334.3,72.9z"/>
	<path id="fullLogo-47" class="st1" d="M339.8,70.1c0,1.2,0.6,2,1.9,2c0.6,0,1.3-0.2,1.8-0.6l0.6,0.8c-0.7,0.6-1.5,0.9-2.4,0.8
		c-1.6,0.2-3-1-3.2-2.6c0-0.2,0-0.4,0-0.6c0-1.8,0.9-3.2,3-3.2c1.9,0,2.7,1.3,2.7,3c0,0.1,0,0.2,0,0.3H339.8z M339.8,69.2h3.1
		c-0.1-1-0.6-1.5-1.5-1.5c-0.8-0.1-1.6,0.5-1.6,1.3C339.8,69.1,339.8,69.1,339.8,69.2L339.8,69.2z"/>
	<path id="fullLogo-48" class="st1" d="M347.9,69.4c1.4,0.4,2.1,0.9,2.1,1.9c0,1.1-0.8,1.7-2.1,1.7c-0.7,0.1-1.4-0.2-1.9-0.7l0,0.5
		h-0.9v-2.1h1c0.2,0.8,0.9,1.3,1.7,1.2c0.6,0,1-0.2,1-0.7c0-0.5-0.4-0.7-0.8-0.8l-0.9-0.2c-1-0.2-2-0.6-2-1.9c0-1.1,0.8-1.7,2-1.7
		c0.7,0,1.3,0.2,1.8,0.7l0-0.5h0.9v1.9h-1c-0.1-0.7-0.7-1.2-1.4-1.1c-0.6,0-1,0.2-1,0.7c0,0.4,0.3,0.6,0.8,0.7L347.9,69.4z"/>
	<path id="fullLogo-49" class="st1" d="M353.6,69.4c1.4,0.4,2.1,0.9,2.1,1.9c0,1.1-0.8,1.7-2.1,1.7c-0.7,0.1-1.4-0.2-1.9-0.7l0,0.5
		h-0.9v-2.1h1c0.2,0.8,0.9,1.3,1.7,1.2c0.6,0,1-0.2,1-0.7c0-0.5-0.4-0.7-0.8-0.8l-0.9-0.2c-1-0.2-2-0.6-2-1.9c0-1.1,0.8-1.7,2-1.7
		c0.7,0,1.3,0.2,1.8,0.7l0-0.5h0.9v1.9h-1c-0.1-0.7-0.7-1.2-1.4-1.1c-0.6,0-1,0.2-1,0.7c0,0.4,0.3,0.6,0.8,0.7L353.6,69.4z"/>
	<path id="fullLogo-50" class="st1" d="M356.4,72.9v-1h0.8v-4.1h-0.8v-1h2.1v5h0.8v1L356.4,72.9z M356.8,64.9c0-0.5,0.4-0.9,0.8-0.9
		c0.5,0,0.9,0.4,0.9,0.8c0,0.5-0.4,0.9-0.8,0.9c0,0,0,0,0,0C357.2,65.8,356.8,65.4,356.8,64.9C356.8,65,356.7,64.9,356.8,64.9z"/>
	<path id="fullLogo-51" class="st1" d="M359.9,69.9c0-1.9,1-3.2,3-3.2s3,1.3,3,3.2s-1,3.2-3,3.2S359.9,71.8,359.9,69.9z M364.5,69.9
		c0-1.3-0.5-2.1-1.6-2.1c-1.1,0-1.6,0.8-1.6,2.1c0,1.3,0.5,2.1,1.6,2.1C364,72,364.5,71.2,364.5,69.9L364.5,69.9z"/>
	<path id="fullLogo-52" class="st1" d="M372.7,72h0.8v1h-2.8v-1h0.8v-2.4c0-1-0.3-1.7-1.2-1.7c-1.3,0-1.6,1.3-1.6,2.1V72h0.8v1h-2.8
		v-1h0.8v-4.1h-0.8v-1h1.8l0.1,0.9h0c0.4-0.7,1.2-1.1,2-1.1c1.4,0,2.2,1,2.2,2.8L372.7,72z"/>
	<path id="fullLogo-53" class="st1" d="M379.4,72h0.8v1h-1.7l-0.1-0.9h0c-0.5,0.7-1.3,1.1-2.2,1.1c-1.2,0-2-0.5-2-1.7
		c0-1.3,1.1-1.9,2.7-1.9h1.2v0c0-0.9-0.3-1.6-1.3-1.6c-0.6-0.1-1.1,0.3-1.2,0.8c0,0,0,0.1,0,0.1h-1.3c0-1.6,1.2-2,2.4-2
		c2.3,0,2.6,1.6,2.6,2.7V72z M378.2,70.6v-0.2h-1c-0.6,0-1.6,0-1.6,0.9c0,0.5,0.4,0.8,0.9,0.8C377.4,72.1,378.1,71.5,378.2,70.6
		C378.2,70.6,378.2,70.6,378.2,70.6L378.2,70.6z"/>
	<path id="fullLogo-54" class="st1" d="M380.7,72.9v-1h0.8v-6.8h-0.8v-0.9h2.1V72h0.8v1L380.7,72.9z"/>
	<path id="fullLogo-55" class="st1" d="M387.3,69.4c1.4,0.4,2.1,0.9,2.1,1.9c0,1.1-0.8,1.7-2.1,1.7c-0.7,0.1-1.4-0.2-1.9-0.7l0,0.5
		h-0.9v-2.1h1c0.2,0.8,0.9,1.3,1.7,1.2c0.6,0,1-0.2,1-0.7c0-0.5-0.4-0.7-0.8-0.8l-0.9-0.2c-1-0.2-2-0.6-2-1.9c0-1.1,0.8-1.7,2-1.7
		c0.7,0,1.3,0.2,1.8,0.7l0-0.5h0.9v1.9h-1c-0.1-0.7-0.7-1.2-1.4-1.1c-0.6,0-1,0.2-1,0.7c0,0.4,0.3,0.6,0.8,0.7L387.3,69.4z"/>
	<g>
		<path class="st2" d="M46.9,57.9c1.8-7.4,5-14.3,9.5-20.5c1.7-2.4,3.6-4.7,5.6-6.8C60.2,17.8,54.6,7,46.9,1
			c-7.7,6.1-13.3,16.9-15.1,29.6c2,2.1,3.9,4.4,5.6,6.8C41.9,43.6,45.1,50.5,46.9,57.9z"/>
		<path class="st3" d="M31.2,39.4c0-2.9,0.2-5.9,0.6-8.8c-8.9-9.4-19.7-14.8-29.6-15.3C-1,26.8,2.2,42.2,11.8,55.7
			s23.1,21.5,35,22.1l0,0C37.5,70.3,31.2,55.9,31.2,39.4z"/>
		<path class="st2" d="M46.9,77.7c-1.7-6.5-1.7-13.4,0-19.9c-1.8-7.4-5-14.3-9.5-20.5c-1.7-2.4-3.6-4.7-5.6-6.8
			c-0.4,2.9-0.6,5.8-0.6,8.8C31.2,55.9,37.5,70.3,46.9,77.7z"/>
		<path class="st3" d="M46.9,77.7c-1.7-6.5-1.7-13.4,0-19.9c-1.8-7.4-5-14.3-9.5-20.5c-1.7-2.4-3.6-4.7-5.6-6.8
			c-0.4,2.9-0.6,5.8-0.6,8.8C31.2,55.9,37.5,70.3,46.9,77.7z"/>
		<polygon class="st2" points="46.9,77.8 46.9,77.8 46.9,77.8 46.9,77.8 		"/>
		<polygon class="st3" points="46.9,77.8 46.9,77.8 46.9,77.8 46.9,77.8 		"/>
		<path class="st4" d="M91.5,15.3c-9.8,0.5-20.6,6-29.5,15.3c0.4,2.9,0.6,5.8,0.6,8.8c0,16.5-6.3,30.9-15.7,38.3l0,0
			c11.9-0.6,25.4-8.7,35-22.1S94.8,26.8,91.5,15.3z"/>
		<path class="st2" d="M46.9,57.9c1.7,6.5,1.7,13.4,0,19.9c9.4-7.4,15.7-21.8,15.7-38.3c0-2.9-0.2-5.9-0.6-8.8
			c-2,2.1-3.9,4.4-5.6,6.8C51.9,43.6,48.7,50.5,46.9,57.9z"/>
		<path class="st4" d="M46.9,57.9c1.7,6.5,1.7,13.4,0,19.9c9.4-7.4,15.7-21.8,15.7-38.3c0-2.9-0.2-5.9-0.6-8.8
			c-2,2.1-3.9,4.4-5.6,6.8C51.9,43.6,48.7,50.5,46.9,57.9z"/>
		<path class="st2" d="M46.9,57.9c-1.7,6.5-1.7,13.4,0,19.9H47C48.6,71.2,48.6,64.4,46.9,57.9z"/>
		<path class="st3" d="M46.9,57.9c-1.7,6.5-1.7,13.4,0,19.9H47C48.6,71.2,48.6,64.4,46.9,57.9z"/>
		<path class="st4" d="M46.9,57.9c-1.7,6.5-1.7,13.4,0,19.9H47C48.6,71.2,48.6,64.4,46.9,57.9z"/>
	</g>
</g>
</svg>
