<svg id="Layer_1" data-name="Layer 1" xmlns="http://www.w3.org/2000/svg" viewBox="0 0 391.083 78.7951">
  <g>
    <path id="fullLogo" d="M136.6734,43.12h2.8623l-.4629,3.41h-7.7461l1.9785-12.0821a19.6431,19.6431,0,0,0,.2529-2.5683c0-2.3154-.8417-3.62-2.6523-3.62-4.21,0-7.1152,8.7138-8.041,13.3027l-.5889,4.9678h-4.8838l3.9571-28.1641h-2.7364l.5049-3.41h7.4942l-1.3057,9.3457a20.5942,20.5942,0,0,1-1.8945,6.8623h.2949c2.02-4.041,4.9258-7.03,8.9248-7.03,3.7891,0,5.6836,2.4834,5.6836,6.9043a22.06,22.06,0,0,1-.252,3.41Z" style="fill: #91b070"/>
    <path id="fullLogo-2" data-name="fullLogo" d="M157.3453,41.5628l2.1464,2.7363a10.3194,10.3194,0,0,1-7.5351,2.8633c-5.9785,0-9.1777-3.789-9.1777-9.8935,0-7.5782,4.1679-13.1348,11.1562-13.1348,4.21,0,6.9463,2.4834,6.9463,6.1465,0,5.7256-5.4307,8.209-13.0508,8.8408.3789,2.6523,1.7686,4.252,4.6309,4.252A6.9766,6.9766,0,0,0,157.3453,41.5628Zm-9.5567-5.7256c5.2627-.4629,8.3779-2.0205,8.3779-5.3047a2.34,2.34,0,0,0-2.61-2.5674C150.188,27.9651,148.1675,31.5013,147.7886,35.8372Z" style="fill: #91b070"/>
    <path id="fullLogo-3" data-name="fullLogo" d="M181.68,43.12h2.6934l-.4629,3.41h-7.1143l.126-1.0528a22.9047,22.9047,0,0,1,1.39-5.3046h-.295c-1.9365,4.2529-4.7148,6.9892-8.7568,6.9892-4.083,0-6.3984-2.9053-6.3984-8.5039,0-8.083,4.3779-14.5244,11.7451-14.5244a9.7118,9.7118,0,0,1,6.1045,1.9365l.8-1.2627h2.6943ZM178.691,29.9017l.1259-.59a6.2073,6.2073,0,0,0-4.21-1.3886c-4.7149,0-6.7774,5.3886-6.7774,10.3564,0,3.3252,1.01,4.7568,3.1573,4.7568C174.565,43.0364,177.1333,37.1009,178.691,29.9017Z" style="fill: #91b070"/>
    <path id="fullLogo-4" data-name="fullLogo" d="M187.8277,46.5306l3.915-28.1641h-2.7363l.5049-3.41h7.4941L193.09,43.12h2.7363l-.5059,3.41Z" style="fill: #91b070"/>
    <path id="fullLogo-5" data-name="fullLogo" d="M200.1216,40.9739a19.96,19.96,0,0,1,.169-2.3154L201.7222,28.26h-2.8213l.5059-3.4522h2.82l.7158-5.1787,4.9258-1.0527-.8848,6.2314h6.5679l-.5059,3.4522H206.563l-1.4736,10.3984a10.2553,10.2553,0,0,0-.126,1.6c0,2.1045,1.0528,3.1572,3.0733,3.1572a6.89,6.89,0,0,0,2.99-.6318l-.5059,3.5361a8.369,8.369,0,0,1-4.0834.8848C201.8062,47.2044,200.1216,44.5941,200.1216,40.9739Z" style="fill: #91b070"/>
    <path id="fullLogo-6" data-name="fullLogo" d="M233.6748,43.12h2.8633l-.4629,3.41h-7.7461l1.9786-12.0821A19.8064,19.8064,0,0,0,230.56,31.88c0-2.3154-.8418-3.62-2.6523-3.62-4.209,0-7.1153,8.7138-8.041,13.3027l-.5879,4.9678h-4.8848l3.957-28.1641h-2.7363l.5059-3.41h7.4941l-1.3066,9.3457a20.5693,20.5693,0,0,1-1.8946,6.8623h.2949c2.0215-4.041,4.9258-7.03,8.9258-7.03,3.7891,0,5.6836,2.4834,5.6836,6.9043a22.073,22.073,0,0,1-.2519,3.41Z" style="fill: #91b070"/>
    <path id="fullLogo-7" data-name="fullLogo" d="M250.5166,33.9847c5.1368,1.4736,7.4512,3.2,7.4512,7.0312,0,3.9571-3.0723,6.1885-7.7461,6.1885-3.41,0-5.6-1.0107-7.0312-2.61l-.084,1.9365h-3.3672V39.0794h3.7051a5.8454,5.8454,0,0,0,6.1035,4.5039c2.1055,0,3.6621-.8838,3.6621-2.6094,0-1.6425-1.3457-2.3584-2.9043-2.7373l-3.3262-.8418c-3.4511-.8838-7.3242-2.1045-7.3242-7.03,0-4.0411,2.9043-6.1465,7.2832-6.1465a9.1,9.1,0,0,1,6.4414,2.3994l.084-1.7676h3.3672v7.0723H253.126a5.0856,5.0856,0,0,0-5.1777-4.168c-2.0215,0-3.5371.8848-3.5371,2.6943,0,1.5157,1.0117,2.0635,3.0312,2.6524Z" style="fill: #253746"/>
    <path id="fullLogo-8" data-name="fullLogo" d="M262.1788,39.2474V28.3021h-2.7774V24.85h2.7774V19.6712l4.7578-1.0947V24.85h6.5664v3.4522h-6.5664V39.2474c0,2.7783,1.1367,4.21,3.6211,4.21a6.2622,6.2622,0,0,0,2.9453-.7158v3.5361a8.4431,8.4431,0,0,1-4.125.9268C264.0733,47.2044,262.1788,43.8362,262.1788,39.2474Z" style="fill: #253746"/>
    <path id="fullLogo-9" data-name="fullLogo" d="M294.4288,43.0784h2.7363v3.4522h-6.1465l-.4219-3.3262h-.1679a9.1442,9.1442,0,0,1-7.83,3.958c-4.211,0-7.1992-1.9365-7.1992-6.2314,0-4.7569,3.914-6.9034,9.9355-6.9034h4.4629v-.1689c0-3.3262-1.0957-5.81-4.6309-5.81-2.2324,0-3.875.7578-4.2539,3.41h-4.5449c0-5.6836,4.42-7.2832,8.7988-7.2832,8.418,0,9.2618,5.7676,9.2618,9.6826Zm-4.6309-5.0517v-.7158h-3.6641c-2.3574,0-5.6406.1259-5.6406,3.3261,0,1.9785,1.3047,2.9043,3.3672,2.9043C286.7666,43.5413,289.7979,41.5628,289.7979,38.0267Z" style="fill: #253746"/>
    <path id="fullLogo-10" data-name="fullLogo" d="M299.0186,46.5306V43.0784h2.7363V28.1751h-2.7363V24.723h2.7363V22.2816c0-4.5889,1.9375-7.9571,7.1992-7.9571a9.2394,9.2394,0,0,1,3.83.7578v3.5362a6.8332,6.8332,0,0,0-2.6094-.5469c-2.5253,0-3.621,1.4316-3.621,4.21V24.723h5.3476v3.4521h-5.3476V43.0784h3.916v3.4522Z" style="fill: #253746"/>
    <path id="fullLogo-11" data-name="fullLogo" d="M313.6709,46.5306V43.0784h2.7364V28.1751h-2.7364V24.723h2.7364V22.2816c0-4.5889,1.9355-7.9571,7.1972-7.9571a9.25,9.25,0,0,1,3.8321.7578v3.5362a6.8522,6.8522,0,0,0-2.6114-.5469c-2.5254,0-3.6191,1.4316-3.6191,4.21V24.723h5.3457v3.4521h-5.3457V43.0784H325.12v3.4522Zm15.4922,0V43.0784H331.9V28.3021h-2.7364V24.85h7.5352V43.0784h2.7363v3.4522Zm1.43-29.0908a3.1594,3.1594,0,0,1,6.3164,0,3.1609,3.1609,0,0,1-6.3164,0Z" style="fill: #253746"/>
    <path id="fullLogo-12" data-name="fullLogo" d="M363.8116,43.0784h2.7363v3.4522H356.2745V43.0784h2.7382v-8.63c0-3.4521-1.0527-6.1884-4.5058-6.1884-4.6719,0-5.6836,4.5879-5.6836,7.7461v7.0722H351.56v3.4522H341.2881V43.0784h2.7364V28.3021h-2.7364V24.85h6.6524l.42,3.2832h.168a8.1813,8.1813,0,0,1,7.41-3.957c5.1778,0,7.8731,3.789,7.8731,10.2295Z" style="fill: #253746"/>
    <path id="fullLogo-13" data-name="fullLogo" d="M379.0518,43.5833c7.3691,0,11.0312,2.5264,11.0312,6.7363,0,4.8409-4.3359,7.4092-11.24,7.4092-7.2422,0-11.0723-2.5254-11.0723-7.4512a5.7042,5.7042,0,0,1,3.2833-5.01,3.6084,3.6084,0,0,1-2.7793-3.6631c0-1.4736.8007-2.8623,3.2011-3.62a7.7832,7.7832,0,0,1-2.1484-5.7256c0-4.8,3.1152-8.083,9.3457-8.083a13.2075,13.2075,0,0,1,3.832.5049c.084-1.9785,1.2207-3.7041,4.125-3.7041a10.4655,10.4655,0,0,1,2.7793.3359v3.874a3.3694,3.3694,0,0,0-1.6426-.3789c-1.0527,0-1.6836.5889-1.6836,1.3467a2.0717,2.0717,0,0,0,.5469,1.2627,8.1649,8.1649,0,0,1,1.4317,4.8418c0,4.8418-2.9043,8.167-9.3887,8.167a12.4728,12.4728,0,0,1-5.1777-1.01,2.2478,2.2478,0,0,0-.9258,1.7676c0,1.0947.9258,2.3994,4.2949,2.3994Zm6.2324,6.82c0-2.2314-2.0644-3.4521-6.1054-3.4521h-1.01c-3.957,0-5.6836,1.2627-5.6836,3.4941,0,2.3574,2.1894,3.7051,6.3574,3.7051C382.253,54.1507,385.2842,52.972,385.2842,50.4036ZM374.085,32.2591a4.2233,4.2233,0,0,0,4.5879,4.5889,4.2661,4.2661,0,0,0,4.59-4.5889,4.589,4.589,0,0,0-9.1777,0Z" style="fill: #253746"/>
    <path id="fullLogo-14" data-name="fullLogo" d="M124.22,70.2025a3.0491,3.0491,0,0,1-3.375,2.8759c-2.5518,0-3.8614-1.623-3.8614-4.2324,0-2.6211,1.2286-4.2451,3.5713-4.2451a3.2125,3.2125,0,0,1,2.5625,1.1484l.0469-.9629h.9512v2.9688h-1.0908a2.16,2.16,0,0,0-2.2266-2.0176c-1.542,0-2.3193,1.02-2.3193,3.1084,0,2.0527.87,3.0957,2.39,3.0957a1.8642,1.8642,0,0,0,2.0293-1.7392Z" style="fill: #253746"/>
    <path id="fullLogo-15" data-name="fullLogo" d="M125.044,69.9124c0-1.8555.9512-3.166,2.9922-3.166s2.9922,1.3105,2.9922,3.166-.9512,3.166-2.9922,3.166S125.044,71.7679,125.044,69.9124Zm4.581,0c0-1.2637-.4755-2.1221-1.5888-2.1221-1.1016,0-1.5889.8467-1.5889,2.1221,0,1.2647.4873,2.11,1.5889,2.11C129.1495,72.0228,129.625,71.1653,129.625,69.9124Z" style="fill: #253746"/>
    <path id="fullLogo-16" data-name="fullLogo" d="M137.918,71.9534h.7539v.9512h-2.8291v-.9512h.7529V69.5765c0-.9512-.29-1.7051-1.24-1.7051-1.2871,0-1.5654,1.2646-1.5654,2.1338v1.9482h.7539v.9512h-2.83v-.9512h.7539v-4.07h-.7539v-.9512h1.832l.1163.9053h.0458a2.2544,2.2544,0,0,1,2.0411-1.0908c1.4267,0,2.1689,1.0439,2.1689,2.8184Z" style="fill: #253746"/>
    <path id="fullLogo-17" data-name="fullLogo" d="M145.5049,71.9534h.7539v.9512h-2.83v-.9512h.7539V69.5765c0-.9512-.2891-1.7051-1.24-1.7051-1.2871,0-1.5654,1.2646-1.5654,2.1338v1.9482h.7529v.9512h-2.8291v-.9512h.7539v-4.07h-.7539v-.9512h1.8321l.1162.9053h.0468a2.252,2.252,0,0,1,2.0411-1.0908c1.4257,0,2.1679,1.0439,2.1679,2.8184Z" style="fill: #253746"/>
    <path id="fullLogo-18" data-name="fullLogo" d="M148.2207,70.0862c.0459,1.2413.626,1.96,1.8555,1.96a2.7763,2.7763,0,0,0,1.7861-.6025l.5684.8115a3.4272,3.4272,0,0,1-2.3545.8232,2.8981,2.8981,0,0,1-3.2012-3.1543c0-1.7978.9053-3.1777,2.9688-3.1777,1.8672,0,2.749,1.334,2.749,3.0039a3.0276,3.0276,0,0,1-.0234.3359Zm.0459-.9043h3.1084c-.14-1.0322-.6494-1.4843-1.4726-1.4843A1.4962,1.4962,0,0,0,148.2666,69.1819Z" style="fill: #253746"/>
    <path id="fullLogo-19" data-name="fullLogo" d="M154.7393,69.8782c0,1.3448.5449,2.1563,1.7627,2.1563a2.4011,2.4011,0,0,0,1.7168-.626l.5684.8467a3.3362,3.3362,0,0,1-2.2969.8349,2.9034,2.9034,0,0,1-3.1543-3.2236c0-1.8213.9394-3.12,2.7373-3.12a2.1384,2.1384,0,0,1,1.7627.7773l.0234-.5918h.9278v2.2618h-1.1836a1.3269,1.3269,0,0,0-1.3213-1.4034C155.169,67.79,154.7393,68.6487,154.7393,69.8782Z" style="fill: #253746"/>
    <path id="fullLogo-20" data-name="fullLogo" d="M160.6319,70.8987V67.8831h-.7656v-.9512h.7656V65.5062l1.31-.3018v1.7275h1.8086v.9512h-1.8086v3.0156c0,.7647.3125,1.1592.9971,1.1592a1.7274,1.7274,0,0,0,.8115-.1972v.9746a2.34,2.34,0,0,1-1.1367.2548C161.1534,73.09,160.6319,72.1624,160.6319,70.8987Z" style="fill: #253746"/>
    <path id="fullLogo-21" data-name="fullLogo" d="M164.3907,72.9046v-.9512h.7539v-4.07h-.7539v-.9512h2.0761v5.0215h.753v.9512Zm.3945-8.0137a.87.87,0,0,1,1.7393,0,.87.87,0,0,1-1.7393,0Z" style="fill: #253746"/>
    <path id="fullLogo-22" data-name="fullLogo" d="M174.0518,71.9534h.7539v.9512h-2.83v-.9512h.7539V69.5765c0-.9512-.289-1.7051-1.24-1.7051-1.2871,0-1.5654,1.2646-1.5654,2.1338v1.9482h.7529v.9512h-2.8291v-.9512h.7539v-4.07h-.7539v-.9512h1.832l.1162.9053h.0469a2.2519,2.2519,0,0,1,2.041-1.0908c1.4258,0,2.168,1.0439,2.168,2.8184Z" style="fill: #253746"/>
    <path id="fullLogo-23" data-name="fullLogo" d="M178.6,72.0931c2.0292,0,3.038.6953,3.038,1.8554,0,1.3331-1.1943,2.0411-3.0957,2.0411-1.9951,0-3.0507-.6963-3.0507-2.0528a1.5708,1.5708,0,0,1,.9052-1.38.9942.9942,0,0,1-.7656-1.0087c0-.4063.22-.7891.8809-.9981a2.1464,2.1464,0,0,1-.5909-1.5771c0-1.3213.8575-2.2266,2.5743-2.2266a3.64,3.64,0,0,1,1.0556.14,1.0076,1.0076,0,0,1,1.1358-1.02,2.8479,2.8479,0,0,1,.7656.0928v1.0664A.9248.9248,0,0,0,181,66.9212c-.29,0-.4638.1621-.4638.3711a.5758.5758,0,0,0,.15.3477,2.2477,2.2477,0,0,1,.3945,1.333c0,1.3339-.8,2.25-2.5859,2.25a3.4348,3.4348,0,0,1-1.4268-.2784.62.62,0,0,0-.2549.4873c0,.3018.2549.6612,1.1826.6612Zm1.7158,1.8789c0-.6153-.5684-.9512-1.6817-.9512h-.2773c-1.0908,0-1.5664.3477-1.5664.9619,0,.6494.6035,1.0205,1.7519,1.0205C179.4805,75.0032,180.3155,74.679,180.3155,73.972Zm-3.084-4.999a1.2637,1.2637,0,1,0,2.5273,0,1.2637,1.2637,0,0,0-2.5273,0Z" style="fill: #253746"/>
    <path id="fullLogo-24" data-name="fullLogo" d="M186.4756,70.0862c.0459,1.2413.626,1.96,1.8555,1.96a2.7763,2.7763,0,0,0,1.7861-.6025l.5674.8115a3.4209,3.4209,0,0,1-2.3535.8232,2.8981,2.8981,0,0,1-3.2012-3.1543c0-1.7978.9053-3.1777,2.9688-3.1777,1.8672,0,2.749,1.334,2.749,3.0039a3.0276,3.0276,0,0,1-.0234.3359Zm.0459-.9043H189.63c-.14-1.0322-.6494-1.4843-1.4726-1.4843A1.4957,1.4957,0,0,0,186.5215,69.1819Z" style="fill: #253746"/>
    <path id="fullLogo-25" data-name="fullLogo" d="M201.7041,71.9534h.7657v.9512h-2.8291v-.9512h.7529V69.5765c0-.9512-.2891-1.7051-1.24-1.7051-1.2412,0-1.4961,1.2529-1.4961,2.1338v1.9482h.7656v.9512h-2.83v-.9512h.7539V69.5765c0-.9512-.3017-1.7051-1.24-1.7051-1.2412,0-1.4961,1.2646-1.4961,2.1338v1.9482h.7539v.9512h-2.83v-.9512h.7539v-4.07h-.7539v-.9512h1.8438l.1162.9053h.0459a2.1092,2.1092,0,0,1,1.9482-1.0908,1.9146,1.9146,0,0,1,1.9365,1.334,2.1916,2.1916,0,0,1,2.1114-1.334c1.4258,0,2.1679,1.0322,2.1679,2.8184Z" style="fill: #253746"/>
    <path id="fullLogo-26" data-name="fullLogo" d="M209.3028,69.7962a2.9781,2.9781,0,0,1-3.1309,3.2822,3.9929,3.9929,0,0,1-1.2637-.209v1.9834h.753v.9512h-2.8291v-.9512h.7539v-6.97h-.7539v-.9512h1.7861l.1152.9053h.0586a2.03,2.03,0,0,1,1.96-1.0908C208.3633,66.7464,209.3028,67.9876,209.3028,69.7962Zm-1.4151,0c0-1.2637-.4629-2.0059-1.4023-2.0059-1.01,0-1.5772.7539-1.5772,2.0762V71.722a2.2078,2.2078,0,0,0,1.2637.3125C207.5284,72.0345,207.8877,70.9915,207.8877,69.7962Z" style="fill: #253746"/>
    <path id="fullLogo-27" data-name="fullLogo" d="M209.9893,72.9046v-.9512h.7539V65.1575h-.7539v-.95h2.0762v7.7461h.7539v.9512Z" style="fill: #253746"/>
    <path id="fullLogo-28" data-name="fullLogo" d="M213.5039,69.9124c0-1.8555.9512-3.166,2.9922-3.166s2.9922,1.3105,2.9922,3.166-.9511,3.166-2.9922,3.166S213.5039,71.7679,213.5039,69.9124Zm4.5811,0c0-1.2637-.4756-2.1221-1.5889-2.1221-1.1015,0-1.5888.8467-1.5888,2.1221,0,1.2647.4873,2.11,1.5888,2.11C217.6094,72.0228,218.085,71.1653,218.085,69.9124Z" style="fill: #253746"/>
    <path id="fullLogo-29" data-name="fullLogo" d="M220.9043,75.6878V74.6556a1.9092,1.9092,0,0,0,1.0323.29c.7763,0,1.125-.3828,1.4033-1.2529l.3711-1.1358h-1.2988l-1.8555-4.6738h-.7656v-.9512h3.1308v.9512h-.87l1.2881,3.63h.707l1.1485-3.63h-.8584v-.9512h2.9453v.9512h-.835l-1.9131,5.9951c-.43,1.3457-1.0088,2.1-2.3662,2.1A2.3926,2.3926,0,0,1,220.9043,75.6878Z" style="fill: #253746"/>
    <path id="fullLogo-30" data-name="fullLogo" d="M228.9209,70.0862c.0459,1.2413.626,1.96,1.8555,1.96a2.7763,2.7763,0,0,0,1.7861-.6025l.5674.8115a3.4208,3.4208,0,0,1-2.3535.8232,2.8981,2.8981,0,0,1-3.2012-3.1543c0-1.7978.9053-3.1777,2.9688-3.1777,1.8672,0,2.749,1.334,2.749,3.0039a3.0276,3.0276,0,0,1-.0234.3359Zm.0459-.9043h3.1084c-.14-1.0322-.6494-1.4843-1.4726-1.4843A1.4957,1.4957,0,0,0,228.9668,69.1819Z" style="fill: #253746"/>
    <path id="fullLogo-31" data-name="fullLogo" d="M238.292,66.805v1.2178a3.7238,3.7238,0,0,0-.4629-.0352c-1.2646,0-1.7744.5566-1.7744,2.1455v1.82h1.0782v.9512h-3.1543v-.9512h.7539v-4.07h-.7539v-.9512h1.8095l.1035.9864h.0586a1.7356,1.7356,0,0,1,1.7852-1.1826A1.95,1.95,0,0,1,238.292,66.805Z" style="fill: #253746"/>
    <path id="fullLogo-32" data-name="fullLogo" d="M241.7842,69.4485c1.4151.4063,2.0528.8819,2.0528,1.9366,0,1.0908-.8467,1.705-2.1338,1.705a2.4377,2.4377,0,0,1-1.9366-.7187l-.0234.5332h-.9277V70.8519h1.0205a1.6113,1.6113,0,0,0,1.6816,1.2412c.58,0,1.0088-.2442,1.0088-.7188,0-.4531-.3711-.65-.8-.7539l-.916-.2324c-.9512-.2432-2.0186-.58-2.0186-1.9365,0-1.1133.8008-1.6934,2.0069-1.6934a2.5059,2.5059,0,0,1,1.7744.6611l.0224-.4873h.9278V68.88H242.503a1.4,1.4,0,0,0-1.4258-1.1475c-.5567,0-.9746.2432-.9746.7422,0,.417.2783.5684.8349.73Z" style="fill: #253746"/>
    <path id="fullLogo-33" data-name="fullLogo" d="M249.6729,72.9046l-1.6357-5.0215h-.7881v-.9512H250.38v.9512h-.916l1.16,3.9776h.5214l1.2178-3.3165-.1972-.6611h-.6495v-.9512h2.8526v.9512h-.7764l1.1016,3.9776h.5215l1.23-3.9776h-.9629v-.9512h2.9453v.9512h-.7764l-1.6465,5.0215h-2.2617l-.8584-2.7256-1.0439,2.7256Z" style="fill: #253746"/>
    <path id="fullLogo-34" data-name="fullLogo" d="M258.7793,72.9046v-.9512h.7539v-4.07h-.7539v-.9512h2.0762v5.0215h.7529v.9512Zm.3946-8.0137a.87.87,0,0,1,1.7392,0,.87.87,0,0,1-1.7392,0Z" style="fill: #253746"/>
    <path id="fullLogo-35" data-name="fullLogo" d="M262.6885,70.8987V67.8831h-.7656v-.9512h.7656V65.5062l1.3106-.3018v1.7275h1.8086v.9512h-1.8086v3.0156c0,.7647.3125,1.1592.997,1.1592a1.7275,1.7275,0,0,0,.8116-.1972v.9746a2.3411,2.3411,0,0,1-1.1368.2548C263.21,73.09,262.6885,72.1624,262.6885,70.8987Z" style="fill: #253746"/>
    <path id="fullLogo-36" data-name="fullLogo" d="M272.5811,71.9534h.7539v.9512h-2.83v-.9512h.7539V69.5648c0-.94-.289-1.6934-1.24-1.6934-1.2871,0-1.5654,1.2646-1.5654,2.1338v1.9482h.7529v.9512H266.377v-.9512h.7539V65.1575h-.7539v-.95h2.0762v2.1914a5.1379,5.1379,0,0,1-.1856,1.45h.0459a2.3773,2.3773,0,0,1,2.1-1.1025c1.4258,0,2.168.9746,2.168,2.8066Z" style="fill: #253746"/>
    <path id="fullLogo-37" data-name="fullLogo" d="M283.1836,71.9534h.7539v.9512h-2.8291v-.9512h.753V69.5648c0-.94-.29-1.6934-1.24-1.6934-1.2871,0-1.5654,1.2646-1.5654,2.1338v1.9482h.7539v.9512h-2.83v-.9512h.7539V65.1575H276.98v-.95h2.0762v2.1914a5.1417,5.1417,0,0,1-.1855,1.45h.0459a2.3766,2.3766,0,0,1,2.0986-1.1025c1.4267,0,2.1689.9746,2.1689,2.8066Z" style="fill: #253746"/>
    <path id="fullLogo-38" data-name="fullLogo" d="M285.9,70.0862c.0459,1.2413.6259,1.96,1.8554,1.96a2.7768,2.7768,0,0,0,1.7862-.6025l.5673.8115a3.4208,3.4208,0,0,1-2.3535.8232,2.898,2.898,0,0,1-3.2011-3.1543c0-1.7978.9052-3.1777,2.9687-3.1777,1.8672,0,2.749,1.334,2.749,3.0039a3.0276,3.0276,0,0,1-.0234.3359Zm.0459-.9043h3.1084c-.14-1.0322-.65-1.4843-1.4727-1.4843A1.4956,1.4956,0,0,0,285.9454,69.1819Z" style="fill: #253746"/>
    <path id="fullLogo-39" data-name="fullLogo" d="M296.2686,71.9534h.7539v.9512h-1.6934l-.1162-.916h-.0459a2.52,2.52,0,0,1-2.1572,1.09c-1.16,0-1.9834-.5332-1.9834-1.7158,0-1.3105,1.0791-1.9023,2.7373-1.9023h1.23v-.0459c0-.917-.3018-1.6006-1.2764-1.6006a1.0114,1.0114,0,0,0-1.1709.9394H291.293c0-1.5654,1.2178-2.0068,2.4238-2.0068,2.3194,0,2.5518,1.5889,2.5518,2.668Zm-1.2754-1.3916v-.1972h-1.01c-.6494,0-1.5537.0351-1.5537.916,0,.5459.3594.8008.9278.8008A1.5557,1.5557,0,0,0,294.9932,70.5618Z" style="fill: #253746"/>
    <path id="fullLogo-40" data-name="fullLogo" d="M297.5332,72.9046v-.9512h.754V65.1575h-.754v-.95h2.0762v7.7461h.7529v.9512Z" style="fill: #253746"/>
    <path id="fullLogo-41" data-name="fullLogo" d="M301.5245,70.8987V67.8831h-.7657v-.9512h.7657V65.5062l1.31-.3018v1.7275h1.8086v.9512H302.835v3.0156c0,.7647.3125,1.1592.9971,1.1592a1.7274,1.7274,0,0,0,.8115-.1972v.9746a2.3406,2.3406,0,0,1-1.1367.2548C302.0459,73.09,301.5245,72.1624,301.5245,70.8987Z" style="fill: #253746"/>
    <path id="fullLogo-42" data-name="fullLogo" d="M311.418,71.9534h.7539v.9512h-2.8291v-.9512h.7529V69.5648c0-.94-.29-1.6934-1.24-1.6934-1.2871,0-1.5654,1.2646-1.5654,2.1338v1.9482h.7539v.9512h-2.83v-.9512h.7539V65.1575h-.7539v-.95H307.29v2.1914a5.1379,5.1379,0,0,1-.1856,1.45h.0459a2.3768,2.3768,0,0,1,2.0987-1.1025c1.4267,0,2.1689.9746,2.1689,2.8066Z" style="fill: #253746"/>
    <path id="fullLogo-43" data-name="fullLogo" d="M322.2862,69.7962a2.9781,2.9781,0,0,1-3.1309,3.2822,3.9883,3.9883,0,0,1-1.2637-.209v1.9834h.7539v.9512h-2.83v-.9512h.7539v-6.97h-.7539v-.9512h1.7861l.1162.9053h.0576a2.03,2.03,0,0,1,1.96-1.0908C321.3467,66.7464,322.2862,67.9876,322.2862,69.7962Zm-1.4141,0c0-1.2637-.4648-2.0059-1.4033-2.0059-1.0088,0-1.5772.7539-1.5772,2.0762V71.722a2.21,2.21,0,0,0,1.2637.3125C320.5118,72.0345,320.8721,70.9915,320.8721,69.7962Z" style="fill: #253746"/>
    <path id="fullLogo-44" data-name="fullLogo" d="M327.2862,66.805v1.2178a3.7255,3.7255,0,0,0-.4629-.0352c-1.2647,0-1.7744.5566-1.7744,2.1455v1.82h1.0781v.9512h-3.1543v-.9512h.7539v-4.07h-.7539v-.9512h1.81l.1035.9864h.0586a1.7355,1.7355,0,0,1,1.7851-1.1826A1.95,1.95,0,0,1,327.2862,66.805Z" style="fill: #253746"/>
    <path id="fullLogo-45" data-name="fullLogo" d="M327.6475,69.9124c0-1.8555.9512-3.166,2.9922-3.166s2.9922,1.3105,2.9922,3.166-.9512,3.166-2.9922,3.166S327.6475,71.7679,327.6475,69.9124Zm4.5811,0c0-1.2637-.4756-2.1221-1.5889-2.1221-1.1016,0-1.5889.8467-1.5889,2.1221,0,1.2647.4873,2.11,1.5889,2.11C331.753,72.0228,332.2286,71.1653,332.2286,69.9124Z" style="fill: #253746"/>
    <path id="fullLogo-46" data-name="fullLogo" d="M334.3174,72.9046v-.9512h.7539V67.8489h-.7539v-.9511h.7539v-.6729c0-1.2637.5332-2.1914,1.9825-2.1914a2.5589,2.5589,0,0,1,1.0556.208v.9746a1.8845,1.8845,0,0,0-.7187-.15c-.6963,0-.9971.3936-.9971,1.1592v.6729h1.4727v.9511h-1.4727v4.1045h1.0781v.9512Z" style="fill: #253746"/>
    <path id="fullLogo-47" data-name="fullLogo" d="M339.7686,70.0862c.0459,1.2413.626,1.96,1.8555,1.96a2.7765,2.7765,0,0,0,1.7861-.6025l.5674.8115a3.4209,3.4209,0,0,1-2.3535.8232,2.898,2.898,0,0,1-3.2012-3.1543c0-1.7978.9053-3.1777,2.9687-3.1777,1.8672,0,2.7491,1.334,2.7491,3.0039a3.027,3.027,0,0,1-.0235.3359Zm.0459-.9043h3.1084c-.14-1.0322-.6494-1.4843-1.4727-1.4843A1.4957,1.4957,0,0,0,339.8145,69.1819Z" style="fill: #253746"/>
    <path id="fullLogo-48" data-name="fullLogo" d="M347.876,69.4485c1.4151.4063,2.0528.8819,2.0528,1.9366,0,1.0908-.8467,1.705-2.1338,1.705a2.4377,2.4377,0,0,1-1.9366-.7187l-.0234.5332h-.9277V70.8519h1.02a1.6113,1.6113,0,0,0,1.6816,1.2412c.58,0,1.0088-.2442,1.0088-.7188,0-.4531-.3711-.65-.8-.7539l-.916-.2324c-.9512-.2432-2.0186-.58-2.0186-1.9365,0-1.1133.8008-1.6934,2.0069-1.6934a2.5059,2.5059,0,0,1,1.7744.6611l.0224-.4873h.9278V68.88h-1.02a1.4,1.4,0,0,0-1.4258-1.1475c-.5567,0-.9746.2432-.9746.7422,0,.417.2783.5684.8349.73Z" style="fill: #253746"/>
    <path id="fullLogo-49" data-name="fullLogo" d="M353.6407,69.4485c1.415.4063,2.0527.8819,2.0527,1.9366,0,1.0908-.8467,1.705-2.1338,1.705a2.4374,2.4374,0,0,1-1.9365-.7187l-.0234.5332h-.9278V70.8519h1.0205a1.6114,1.6114,0,0,0,1.6817,1.2412c.58,0,1.0088-.2442,1.0088-.7188,0-.4531-.3711-.65-.8-.7539l-.916-.2324c-.9511-.2432-2.0185-.58-2.0185-1.9365,0-1.1133.8008-1.6934,2.0068-1.6934a2.5058,2.5058,0,0,1,1.7744.6611l.0225-.4873h.9277V68.88h-1.0205a1.4,1.4,0,0,0-1.4258-1.1475c-.5566,0-.9746.2432-.9746.7422,0,.417.2783.5684.835.73Z" style="fill: #253746"/>
    <path id="fullLogo-50" data-name="fullLogo" d="M356.3565,72.9046v-.9512h.7539v-4.07h-.7539v-.9512h2.0762v5.0215h.7539v.9512Zm.3945-8.0137a.87.87,0,1,1,.8692.835A.8065.8065,0,0,1,356.751,64.8909Z" style="fill: #253746"/>
    <path id="fullLogo-51" data-name="fullLogo" d="M359.8711,69.9124c0-1.8555.9512-3.166,2.9922-3.166s2.9922,1.3105,2.9922,3.166-.9512,3.166-2.9922,3.166S359.8711,71.7679,359.8711,69.9124Zm4.5811,0c0-1.2637-.4756-2.1221-1.5889-2.1221-1.1015,0-1.5888.8467-1.5888,2.1221,0,1.2647.4873,2.11,1.5888,2.11C363.9766,72.0228,364.4522,71.1653,364.4522,69.9124Z" style="fill: #253746"/>
    <path id="fullLogo-52" data-name="fullLogo" d="M372.7452,71.9534h.7539v.9512h-2.83v-.9512h.7539V69.5765c0-.9512-.2891-1.7051-1.24-1.7051-1.2872,0-1.5655,1.2646-1.5655,2.1338v1.9482h.753v.9512h-2.8291v-.9512h.7539v-4.07h-.7539v-.9512h1.832l.1162.9053h.0469a2.2517,2.2517,0,0,1,2.041-1.0908c1.4258,0,2.168,1.0439,2.168,2.8184Z" style="fill: #253746"/>
    <path id="fullLogo-53" data-name="fullLogo" d="M379.4385,71.9534h.7539v.9512h-1.6933l-.1162-.916h-.0459a2.52,2.52,0,0,1-2.1573,1.09c-1.16,0-1.9834-.5332-1.9834-1.7158,0-1.3105,1.0791-1.9023,2.7373-1.9023h1.2295v-.0459c0-.917-.3017-1.6006-1.2763-1.6006a1.0113,1.0113,0,0,0-1.1709.9394h-1.253c0-1.5654,1.2178-2.0068,2.4239-2.0068,2.3193,0,2.5517,1.5889,2.5517,2.668Zm-1.2754-1.3916v-.1972h-1.01c-.6495,0-1.5537.0351-1.5537.916,0,.5459.3593.8008.9277.8008A1.5557,1.5557,0,0,0,378.1631,70.5618Z" style="fill: #253746"/>
    <path id="fullLogo-54" data-name="fullLogo" d="M380.7041,72.9046v-.9512h.7539V65.1575h-.7539v-.95H382.78v7.7461h.7539v.9512Z" style="fill: #253746"/>
    <path id="fullLogo-55" data-name="fullLogo" d="M387.3272,69.4485c1.415.4063,2.0527.8819,2.0527,1.9366,0,1.0908-.8467,1.705-2.1338,1.705a2.4374,2.4374,0,0,1-1.9365-.7187l-.0234.5332h-.9278V70.8519h1.02a1.6115,1.6115,0,0,0,1.6817,1.2412c.58,0,1.0088-.2442,1.0088-.7188,0-.4531-.3711-.65-.8-.7539l-.916-.2324c-.9512-.2432-2.0186-.58-2.0186-1.9365,0-1.1133.8008-1.6934,2.0068-1.6934a2.5062,2.5062,0,0,1,1.7745.6611l.0224-.4873h.9277V68.88h-1.02a1.4,1.4,0,0,0-1.4257-1.1475c-.5567,0-.9747.2432-.9747.7422,0,.417.2784.5684.835.73Z" style="fill: #253746"/>
    <g>
      <path d="M46.9134,57.8516a58.9882,58.9882,0,0,1,9.4735-20.4583,61.9623,61.9623,0,0,1,5.6293-6.823C60.2091,17.8,54.5689,7.0455,46.9025,1,39.2361,7.0893,33.5849,17.8551,31.7888,30.636a63.8819,63.8819,0,0,1,5.6074,6.8011A58.9875,58.9875,0,0,1,46.9134,57.8516Z" style="fill: #253746;isolation: isolate;opacity: 0.699999988079071"/>
      <path d="M31.1974,39.3756a62.1018,62.1018,0,0,1,.6243-8.7615c-8.904-9.353-19.7136-14.818-29.57-15.3327-3.2856,11.51-.0986,26.9308,9.5282,40.4127s23.12,21.4658,35.0462,22.101h0C37.5167,70.2711,31.1974,55.9021,31.1974,39.3756Z" style="fill: #2b9fad;isolation: isolate;opacity: 0.699999988079071"/>
      <path d="M46.8587,77.74a39.6777,39.6777,0,0,1,0-19.8887,58.9865,58.9865,0,0,0-9.4954-20.4583,63.8589,63.8589,0,0,0-5.6073-6.8011,62.0858,62.0858,0,0,0-.6243,8.7615C31.1974,55.9021,37.5167,70.2711,46.8587,77.74Z" style="fill: #253746;isolation: isolate;opacity: 0.699999988079071"/>
      <path d="M46.8587,77.74a39.6777,39.6777,0,0,1,0-19.8887,58.9865,58.9865,0,0,0-9.4954-20.4583,63.8589,63.8589,0,0,0-5.6073-6.8011,62.0858,62.0858,0,0,0-.6243,8.7615C31.1974,55.9021,37.5167,70.2711,46.8587,77.74Z" style="fill: #2b9fad;isolation: isolate;opacity: 0.699999988079071"/>
      <polygon points="46.924 77.795 46.924 77.795 46.924 77.795 46.935 77.784 46.924 77.795" style="fill: #253746;isolation: isolate;opacity: 0.699999988079071"/>
      <polygon points="46.924 77.795 46.924 77.795 46.924 77.795 46.935 77.784 46.924 77.795" style="fill: #2b9fad;isolation: isolate;opacity: 0.699999988079071"/>
      <path d="M91.5426,15.27c-9.78.5038-20.6115,5.9579-29.5045,15.3327a62.4282,62.4282,0,0,1,.6133,8.7616c0,16.5374-6.3412,30.9392-15.6942,38.3318h0c11.9377-.6352,25.4414-8.663,35.0463-22.101S94.8392,26.7809,91.5426,15.27Z" style="fill: #91b070;isolation: isolate;opacity: 0.699999988079071"/>
      <path d="M46.9134,57.8516a39.6229,39.6229,0,0,1,0,19.9106c9.353-7.4473,15.6942-21.8491,15.6942-38.3318a62.4282,62.4282,0,0,0-.6133-8.7616,61.9727,61.9727,0,0,0-5.6293,6.8231A58.9879,58.9879,0,0,0,46.9134,57.8516Z" style="fill: #253746;isolation: isolate;opacity: 0.699999988079071"/>
      <path d="M46.9134,57.8516a39.6229,39.6229,0,0,1,0,19.9106c9.353-7.4473,15.6942-21.8491,15.6942-38.3318a62.4282,62.4282,0,0,0-.6133-8.7616,61.9727,61.9727,0,0,0-5.6293,6.8231A58.9879,58.9879,0,0,0,46.9134,57.8516Z" style="fill: #91b070;isolation: isolate;opacity: 0.699999988079071"/>
      <path d="M46.9134,57.8516a39.68,39.68,0,0,0,0,19.8887h.0658A39.6234,39.6234,0,0,0,46.9134,57.8516Z" style="fill: #253746;isolation: isolate;opacity: 0.699999988079071"/>
      <path d="M46.9134,57.8516a39.68,39.68,0,0,0,0,19.8887h.0658A39.6234,39.6234,0,0,0,46.9134,57.8516Z" style="fill: #2b9fad;isolation: isolate;opacity: 0.699999988079071"/>
      <path d="M46.9134,57.8516a39.68,39.68,0,0,0,0,19.8887h.0658A39.6234,39.6234,0,0,0,46.9134,57.8516Z" style="fill: #91b070;isolation: isolate;opacity: 0.699999988079071"/>
    </g>
  </g>
</svg>
